# MagicaVoxel @ Ephtracy

# group
o 

# material
mtllib a-0.mtl
usemtl palette

# normals
vn -1 0 0
vn 1 0 0
vn 0 0 1
vn 0 0 -1
vn 0 -1 0
vn 0 1 0

# texcoords
vt 0.0683594 0.5
vt 0.841797 0.5
vt 0.958984 0.5
vt 0.994141 0.5

# verts
v -0.6 0 0.1
v -0.6 0 -0.4
v -0.6 0.1 0.1
v -0.6 0.1 -0.4
v -0.6 0.6 0.6
v -0.6 0.6 -0.7
v -0.6 1.2 -0.1
v -0.6 1.2 -0.7
v -0.6 1.5 0.3
v -0.6 1.5 0.2
v -0.6 1.6 0.3
v -0.6 1.6 0.2
v -0.6 1.9 0.6
v -0.6 1.9 -0.1
v -0.5 0.1 -0.2
v -0.5 0.1 -0.3
v -0.5 0.6 -0.2
v -0.5 0.6 -0.3
v -0.4 0 0.1
v -0.4 0 0
v -0.4 0.1 0.1
v -0.4 0.1 0
v -0.3 1.3 0.8
v -0.3 1.3 0.6
v -0.3 1.5 0.8
v -0.3 1.5 0.6
v -0.3 1.9 0.4
v -0.3 1.9 0
v -0.3 2.1 0.4
v -0.3 2.1 0
v -0.1 0 0.1
v -0.1 0 -0.4
v -0.1 0.1 0.1
v -0.1 0.1 -0.4
v -5.96046e-08 0.1 -0.2
v -5.96046e-08 0.1 -0.3
v -5.96046e-08 0.6 -0.2
v -5.96046e-08 0.6 -0.3
v 0.1 0 0.1
v 0.1 0 0
v 0.1 0.1 0.1
v 0.1 0.1 0
v -0.5 0 0.1
v -0.5 0 0
v -0.5 0.1 0.1
v -0.5 0.1 0
v -0.4 0.1 -0.2
v -0.4 0.1 -0.3
v -0.4 0.6 -0.2
v -0.4 0.6 -0.3
v -0.3 0 0.1
v -0.3 0 -0.4
v -0.3 0.1 0.1
v -0.3 0.1 -0.4
v -0.1 1.3 0.8
v -0.1 1.3 0.6
v -0.1 1.5 0.8
v -0.1 1.5 0.6
v -0.1 1.9 0.4
v -0.1 1.9 0
v -0.1 2.1 0.4
v -0.1 2.1 0
v -5.96046e-08 0 0.1
v -5.96046e-08 0 0
v -5.96046e-08 0.1 0.1
v -5.96046e-08 0.1 0
v 0.1 0.1 -0.2
v 0.1 0.1 -0.3
v 0.1 0.6 -0.2
v 0.1 0.6 -0.3
v 0.2 0 0.1
v 0.2 0 -0.4
v 0.2 0.1 0.1
v 0.2 0.1 -0.4
v 0.2 0.6 0.6
v 0.2 0.6 -0.7
v 0.2 1.2 -0.1
v 0.2 1.2 -0.7
v 0.2 1.5 0.3
v 0.2 1.5 0.2
v 0.2 1.6 0.3
v 0.2 1.6 0.2
v 0.2 1.9 0.6
v 0.2 1.9 -0.1
v -0.3 1.3 0.8
v -0.3 1.5 0.8
v -0.1 1.3 0.8
v -0.1 1.5 0.8
v -0.6 0.6 0.6
v -0.6 1.9 0.6
v -0.3 1.3 0.6
v -0.3 1.5 0.6
v -0.1 1.3 0.6
v -0.1 1.5 0.6
v 0.2 0.6 0.6
v 0.2 1.9 0.6
v -0.3 1.9 0.4
v -0.3 2.1 0.4
v -0.1 1.9 0.4
v -0.1 2.1 0.4
v -0.6 0 0.1
v -0.6 0.1 0.1
v -0.5 0 0.1
v -0.5 0.1 0.1
v -0.4 0 0.1
v -0.4 0.1 0.1
v -0.3 0 0.1
v -0.3 0.1 0.1
v -0.1 0 0.1
v -0.1 0.1 0.1
v -5.96046e-08 0 0.1
v -5.96046e-08 0.1 0.1
v 0.1 0 0.1
v 0.1 0.1 0.1
v 0.2 0 0.1
v 0.2 0.1 0.1
v -0.5 0 0
v -0.5 0.1 0
v -0.4 0 0
v -0.4 0.1 0
v -5.96046e-08 0 0
v -5.96046e-08 0.1 0
v 0.1 0 0
v 0.1 0.1 0
v -0.5 0.1 -0.2
v -0.5 0.6 -0.2
v -0.4 0.1 -0.2
v -0.4 0.6 -0.2
v -5.96046e-08 0.1 -0.2
v -5.96046e-08 0.6 -0.2
v 0.1 0.1 -0.2
v 0.1 0.6 -0.2
v -0.3 1.9 0
v -0.3 2.1 0
v -0.1 1.9 0
v -0.1 2.1 0
v -0.6 1.2 -0.1
v -0.6 1.9 -0.1
v 0.2 1.2 -0.1
v 0.2 1.9 -0.1
v -0.5 0.1 -0.3
v -0.5 0.6 -0.3
v -0.4 0.1 -0.3
v -0.4 0.6 -0.3
v -5.96046e-08 0.1 -0.3
v -5.96046e-08 0.6 -0.3
v 0.1 0.1 -0.3
v 0.1 0.6 -0.3
v -0.6 0 -0.4
v -0.6 0.1 -0.4
v -0.3 0 -0.4
v -0.3 0.1 -0.4
v -0.1 0 -0.4
v -0.1 0.1 -0.4
v 0.2 0 -0.4
v 0.2 0.1 -0.4
v -0.6 0.6 -0.7
v -0.6 1.2 -0.7
v 0.2 0.6 -0.7
v 0.2 1.2 -0.7
v -0.6 0 0.1
v -0.5 0 0.1
v -0.4 0 0.1
v -0.3 0 0.1
v -0.1 0 0.1
v -5.96046e-08 0 0.1
v 0.1 0 0.1
v 0.2 0 0.1
v -0.5 0 0
v -0.4 0 0
v -5.96046e-08 0 0
v 0.1 0 0
v -0.6 0 -0.4
v -0.3 0 -0.4
v -0.1 0 -0.4
v 0.2 0 -0.4
v -0.6 0.6 0.6
v 0.2 0.6 0.6
v -0.5 0.6 -0.2
v -0.4 0.6 -0.2
v -5.96046e-08 0.6 -0.2
v 0.1 0.6 -0.2
v -0.5 0.6 -0.3
v -0.4 0.6 -0.3
v -5.96046e-08 0.6 -0.3
v 0.1 0.6 -0.3
v -0.6 0.6 -0.7
v 0.2 0.6 -0.7
v -0.3 1.3 0.8
v -0.1 1.3 0.8
v -0.3 1.3 0.6
v -0.1 1.3 0.6
v -0.6 0.1 0.1
v -0.5 0.1 0.1
v -0.4 0.1 0.1
v -0.3 0.1 0.1
v -0.1 0.1 0.1
v -5.96046e-08 0.1 0.1
v 0.1 0.1 0.1
v 0.2 0.1 0.1
v -0.5 0.1 0
v -0.4 0.1 0
v -5.96046e-08 0.1 0
v 0.1 0.1 0
v -0.5 0.1 -0.2
v -0.4 0.1 -0.2
v -5.96046e-08 0.1 -0.2
v 0.1 0.1 -0.2
v -0.5 0.1 -0.3
v -0.4 0.1 -0.3
v -5.96046e-08 0.1 -0.3
v 0.1 0.1 -0.3
v -0.6 0.1 -0.4
v -0.3 0.1 -0.4
v -0.1 0.1 -0.4
v 0.2 0.1 -0.4
v -0.6 1.2 -0.1
v 0.2 1.2 -0.1
v -0.6 1.2 -0.7
v 0.2 1.2 -0.7
v -0.3 1.5 0.8
v -0.1 1.5 0.8
v -0.3 1.5 0.6
v -0.1 1.5 0.6
v -0.6 1.9 0.6
v 0.2 1.9 0.6
v -0.3 1.9 0.4
v -0.1 1.9 0.4
v -0.3 1.9 0
v -0.1 1.9 0
v -0.6 1.9 -0.1
v 0.2 1.9 -0.1
v -0.3 2.1 0.4
v -0.1 2.1 0.4
v -0.3 2.1 0
v -0.1 2.1 0

# faces
f 3/1/1 2/1/1 1/1/1
f 4/1/1 2/1/1 3/1/1
f 7/3/1 6/3/1 5/3/1
f 8/3/1 6/3/1 7/3/1
f 9/3/1 7/3/1 5/3/1
f 10/3/1 7/3/1 9/3/1
f 11/3/1 9/3/1 5/3/1
f 11/4/1 10/4/1 9/4/1
f 12/3/1 7/3/1 10/3/1
f 12/4/1 10/4/1 11/4/1
f 13/3/1 11/3/1 5/3/1
f 13/3/1 12/3/1 11/3/1
f 14/3/1 7/3/1 12/3/1
f 14/3/1 12/3/1 13/3/1
f 17/1/1 16/1/1 15/1/1
f 18/1/1 16/1/1 17/1/1
f 21/1/1 20/1/1 19/1/1
f 22/1/1 20/1/1 21/1/1
f 25/1/1 24/1/1 23/1/1
f 26/1/1 24/1/1 25/1/1
f 29/2/1 28/2/1 27/2/1
f 30/2/1 28/2/1 29/2/1
f 33/1/1 32/1/1 31/1/1
f 34/1/1 32/1/1 33/1/1
f 37/1/1 36/1/1 35/1/1
f 38/1/1 36/1/1 37/1/1
f 41/1/1 40/1/1 39/1/1
f 42/1/1 40/1/1 41/1/1
f 43/1/2 44/1/2 45/1/2
f 45/1/2 44/1/2 46/1/2
f 47/1/2 48/1/2 49/1/2
f 49/1/2 48/1/2 50/1/2
f 51/1/2 52/1/2 53/1/2
f 53/1/2 52/1/2 54/1/2
f 55/1/2 56/1/2 57/1/2
f 57/1/2 56/1/2 58/1/2
f 59/2/2 60/2/2 61/2/2
f 61/2/2 60/2/2 62/2/2
f 63/1/2 64/1/2 65/1/2
f 65/1/2 64/1/2 66/1/2
f 67/1/2 68/1/2 69/1/2
f 69/1/2 68/1/2 70/1/2
f 71/1/2 72/1/2 73/1/2
f 73/1/2 72/1/2 74/1/2
f 75/3/2 76/3/2 77/3/2
f 77/3/2 76/3/2 78/3/2
f 75/3/2 77/3/2 79/3/2
f 79/3/2 77/3/2 80/3/2
f 75/3/2 79/3/2 81/3/2
f 79/4/2 80/4/2 81/4/2
f 80/3/2 77/3/2 82/3/2
f 81/4/2 80/4/2 82/4/2
f 75/3/2 81/3/2 83/3/2
f 81/3/2 82/3/2 83/3/2
f 82/3/2 77/3/2 84/3/2
f 83/3/2 82/3/2 84/3/2
f 87/1/3 86/1/3 85/1/3
f 88/1/3 86/1/3 87/1/3
f 91/3/3 90/3/3 89/3/3
f 92/3/3 90/3/3 91/3/3
f 93/3/3 91/3/3 89/3/3
f 94/3/3 90/3/3 92/3/3
f 95/3/3 93/3/3 89/3/3
f 95/3/3 94/3/3 93/3/3
f 96/3/3 90/3/3 94/3/3
f 96/3/3 94/3/3 95/3/3
f 99/2/3 98/2/3 97/2/3
f 100/2/3 98/2/3 99/2/3
f 103/1/3 102/1/3 101/1/3
f 104/1/3 102/1/3 103/1/3
f 107/1/3 106/1/3 105/1/3
f 108/1/3 106/1/3 107/1/3
f 111/1/3 110/1/3 109/1/3
f 112/1/3 110/1/3 111/1/3
f 115/1/3 114/1/3 113/1/3
f 116/1/3 114/1/3 115/1/3
f 119/1/3 118/1/3 117/1/3
f 120/1/3 118/1/3 119/1/3
f 123/1/3 122/1/3 121/1/3
f 124/1/3 122/1/3 123/1/3
f 127/1/3 126/1/3 125/1/3
f 128/1/3 126/1/3 127/1/3
f 131/1/3 130/1/3 129/1/3
f 132/1/3 130/1/3 131/1/3
f 133/2/4 134/2/4 135/2/4
f 135/2/4 134/2/4 136/2/4
f 137/3/4 138/3/4 139/3/4
f 139/3/4 138/3/4 140/3/4
f 141/1/4 142/1/4 143/1/4
f 143/1/4 142/1/4 144/1/4
f 145/1/4 146/1/4 147/1/4
f 147/1/4 146/1/4 148/1/4
f 149/1/4 150/1/4 151/1/4
f 151/1/4 150/1/4 152/1/4
f 153/1/4 154/1/4 155/1/4
f 155/1/4 154/1/4 156/1/4
f 157/3/4 158/3/4 159/3/4
f 159/3/4 158/3/4 160/3/4
f 169/1/5 162/1/5 161/1/5
f 170/1/5 164/1/5 163/1/5
f 171/1/5 166/1/5 165/1/5
f 172/1/5 168/1/5 167/1/5
f 173/1/5 169/1/5 161/1/5
f 173/1/5 170/1/5 169/1/5
f 174/1/5 164/1/5 170/1/5
f 174/1/5 170/1/5 173/1/5
f 175/1/5 171/1/5 165/1/5
f 175/1/5 172/1/5 171/1/5
f 176/1/5 168/1/5 172/1/5
f 176/1/5 172/1/5 175/1/5
f 179/3/5 178/3/5 177/3/5
f 180/3/5 178/3/5 179/3/5
f 181/3/5 178/3/5 180/3/5
f 182/3/5 178/3/5 181/3/5
f 183/3/5 179/3/5 177/3/5
f 184/3/5 181/3/5 180/3/5
f 185/3/5 181/3/5 184/3/5
f 186/3/5 178/3/5 182/3/5
f 187/3/5 185/3/5 184/3/5
f 187/3/5 186/3/5 185/3/5
f 187/3/5 183/3/5 177/3/5
f 187/3/5 184/3/5 183/3/5
f 188/3/5 178/3/5 186/3/5
f 188/3/5 186/3/5 187/3/5
f 191/1/5 190/1/5 189/1/5
f 192/1/5 190/1/5 191/1/5
f 193/1/6 194/1/6 201/1/6
f 195/1/6 196/1/6 202/1/6
f 197/1/6 198/1/6 203/1/6
f 199/1/6 200/1/6 204/1/6
f 193/1/6 201/1/6 205/1/6
f 201/1/6 202/1/6 205/1/6
f 202/1/6 196/1/6 206/1/6
f 205/1/6 202/1/6 206/1/6
f 197/1/6 203/1/6 207/1/6
f 203/1/6 204/1/6 207/1/6
f 204/1/6 200/1/6 208/1/6
f 207/1/6 204/1/6 208/1/6
f 193/1/6 205/1/6 209/1/6
f 206/1/6 196/1/6 210/1/6
f 197/1/6 207/1/6 211/1/6
f 208/1/6 200/1/6 212/1/6
f 193/1/6 209/1/6 213/1/6
f 209/1/6 210/1/6 213/1/6
f 210/1/6 196/1/6 214/1/6
f 213/1/6 210/1/6 214/1/6
f 211/1/6 212/1/6 215/1/6
f 197/1/6 211/1/6 215/1/6
f 212/1/6 200/1/6 216/1/6
f 215/1/6 212/1/6 216/1/6
f 217/3/6 218/3/6 219/3/6
f 219/3/6 218/3/6 220/3/6
f 221/1/6 222/1/6 223/1/6
f 223/1/6 222/1/6 224/1/6
f 225/3/6 226/3/6 227/3/6
f 227/3/6 226/3/6 228/3/6
f 225/3/6 227/3/6 229/3/6
f 228/3/6 226/3/6 230/3/6
f 225/3/6 229/3/6 231/3/6
f 229/3/6 230/3/6 231/3/6
f 230/3/6 226/3/6 232/3/6
f 231/3/6 230/3/6 232/3/6
f 233/2/6 234/2/6 235/2/6
f 235/2/6 234/2/6 236/2/6
